<!-- This is a SVG pattern for grain texture -->
<svg xmlns="http://www.w3.org/2000/svg" width="200" height="200" viewBox="0 0 200 200">
  <defs>
    <pattern id="grain-texture" patternUnits="userSpaceOnUse" width="200" height="200" patternTransform="rotate(0)">
      <rect width="200" height="200" fill="transparent"/>
      <g opacity="0.08">
        <rect x="0" y="0" width="2" height="2" fill="#96683a"/>
        <rect x="10" y="7" width="1" height="1" fill="#96683a"/>
        <rect x="25" y="15" width="2" height="2" fill="#96683a"/>
        <rect x="40" y="5" width="1" height="1" fill="#96683a"/>
        <rect x="55" y="22" width="2" height="2" fill="#96683a"/>
        <rect x="70" y="12" width="1" height="1" fill="#96683a"/>
        <rect x="85" y="9" width="2" height="2" fill="#96683a"/>
        <rect x="100" y="17" width="1" height="1" fill="#96683a"/>
        <rect x="115" y="5" width="2" height="2" fill="#96683a"/>
        <rect x="130" y="20" width="1" height="1" fill="#96683a"/>
        <rect x="145" y="10" width="2" height="2" fill="#96683a"/>
        <rect x="160" y="3" width="1" height="1" fill="#96683a"/>
        <rect x="175" y="15" width="2" height="2" fill="#96683a"/>
        <rect x="190" y="7" width="1" height="1" fill="#96683a"/>
        
        <rect x="5" y="30" width="2" height="2" fill="#96683a"/>
        <rect x="20" y="37" width="1" height="1" fill="#96683a"/>
        <rect x="35" y="45" width="2" height="2" fill="#96683a"/>
        <rect x="50" y="35" width="1" height="1" fill="#96683a"/>
        <rect x="65" y="52" width="2" height="2" fill="#96683a"/>
        <rect x="80" y="42" width="1" height="1" fill="#96683a"/>
        <rect x="95" y="39" width="2" height="2" fill="#96683a"/>
        <rect x="110" y="47" width="1" height="1" fill="#96683a"/>
        <rect x="125" y="35" width="2" height="2" fill="#96683a"/>
        <rect x="140" y="50" width="1" height="1" fill="#96683a"/>
        <rect x="155" y="40" width="2" height="2" fill="#96683a"/>
        <rect x="170" y="33" width="1" height="1" fill="#96683a"/>
        <rect x="185" y="45" width="2" height="2" fill="#96683a"/>
      </g>
    </pattern>
  </defs>
  <rect width="200" height="200" fill="url(#grain-texture)"/>
</svg>