<svg width="192" height="192" viewBox="0 0 192 192" fill="none" xmlns="http://www.w3.org/2000/svg">
<rect width="192" height="192" rx="24" fill="#2563EB"/>
<path d="M48 96C48 69.4903 69.4903 48 96 48C122.51 48 144 69.4903 144 96C144 122.51 122.51 144 96 144C69.4903 144 48 122.51 48 96Z" fill="white"/>
<path d="M84 72V120H76V80H72V72H84Z" fill="#2563EB"/>
<path d="M108 72C112.418 72 116 75.5817 116 80V112C116 116.418 112.418 120 108 120H96V112H108V80H96V72H108Z" fill="#2563EB"/>
<rect x="64" y="104" width="64" height="8" rx="4" fill="#2563EB"/>
</svg>
